<svg version="1.2" xmlns="http://www.w3.org/2000/svg" viewBox="0 0 250 250" width="250" height="250"><defs><linearGradient id="P" gradientUnits="userSpaceOnUse"/><linearGradient id="g1" x2="1" href="#P" gradientTransform="matrix(229.168,0,0,229.169,10.412,10.415)"><stop stop-color="#6336e7" stop-opacity=".84"/><stop offset="1" stop-color="#6f69f7" stop-opacity=".84"/></linearGradient></defs><style>.a{fill:url(#g1)}</style><path class="a" d="m131.3 14q6.1 10.7 12.2 21.6 0.1 0.2 0.3 0.4 0.2 0.1 0.4 0.3 0.2 0.1 0.5 0.2 0.2 0 0.5 0h57.8q2.7 0 4.6 3.4l15.2 26.8c2 3.5 2.5 5 0.2 8.7q-4 6.7-7.9 13.6l-3.8 6.8c-1.1 2.1-2.3 2.9-0.4 5.3l27.6 48.3c1.8 3.2 1.2 5.2-0.4 8.1q-6.9 12.2-14 24.3c-1.6 2.9-3.6 4-7 3.9q-12.2-0.2-24.3 0.2-0.1 0-0.2 0-0.2 0-0.3 0.1-0.1 0.1-0.2 0.2-0.1 0.1-0.1 0.2-3.5 6.2-7 12.4-3.5 6.1-7.1 12.3-3.5 6.2-7 12.3-3.5 6.2-7.1 12.4c-1.8 3-4 3.7-7.5 3.8q-15.6 0-31.5 0-0.7 0-1.4-0.2-0.7-0.2-1.4-0.6-0.6-0.4-1.1-0.9-0.6-0.5-0.9-1.1l-13.9-24.2q-0.1-0.2-0.2-0.3-0.1-0.1-0.2-0.1-0.1-0.1-0.2-0.1-0.2-0.1-0.3-0.1h-53.3q-4.5 0.5-8.4-0.9l-16.7-28.9q-0.4-0.6-0.6-1.3-0.1-0.7-0.1-1.5 0-0.7 0.1-1.4 0.2-0.8 0.6-1.4l12.6-22.1q0.1-0.2 0.2-0.5 0-0.2 0-0.5 0-0.3 0-0.5-0.1-0.3-0.2-0.5-2.5-4.3-4.9-8.5-2.5-4.3-4.9-8.6-2.5-4.2-4.9-8.5-2.4-4.2-4.9-8.5l-8.2-14.5c-1.7-3.3-1.8-5.2 1-10.1q7.3-12.7 14.4-25.4c1.4-2.4 3.2-3.5 6.1-3.5q3.4 0 6.8 0 3.3 0 6.7 0 3.4 0 6.8 0 3.3 0 6.7 0 0.2 0 0.3 0 0.2-0.1 0.3-0.2 0.2 0 0.3-0.2 0.1-0.1 0.2-0.2l29.2-51q0.4-0.6 0.8-1.1 0.5-0.5 1.1-0.8 0.6-0.3 1.2-0.5 0.7-0.2 1.3-0.2c5.5 0 11 0 16.5 0l10.6-0.3c3.6 0 7.6 0.3 9.4 3.6zm-35.8 4.2q0 0-0.1 0-0.1 0-0.2 0 0 0.1-0.1 0.1-0.1 0.1-0.1 0.2l-29.9 52.2q-0.1 0.2-0.2 0.3-0.2 0.2-0.3 0.3-0.2 0.1-0.4 0.2-0.2 0-0.5 0h-29.8q-0.9 0-0.4 0.8l60.5 105.8q0.4 0.6-0.4 0.6l-29.1 0.2q-0.3 0-0.6 0.1-0.3 0-0.6 0.2-0.3 0.2-0.5 0.4-0.2 0.2-0.4 0.5l-13.7 24.1q-0.7 1.2 0.7 1.2l59.5 0.1q0.7 0 1.1 0.6l14.6 25.6q0.7 1.3 1.5 0l52.1-91.3 8.2-14.4q0.1-0.1 0.2-0.2 0.1-0.1 0.3-0.1 0.1 0 0.3 0.1 0.1 0.1 0.2 0.2l14.8 26.4q0.1 0.1 0.2 0.3 0.1 0.1 0.3 0.2 0.1 0 0.3 0.1 0.2 0 0.3 0l28.8-0.2q0.1 0 0.1 0 0.1 0 0.1 0 0.1-0.1 0.1-0.1 0 0 0.1-0.1 0 0 0-0.1 0 0 0-0.1 0 0 0-0.1 0-0.1 0-0.1l-30.2-53q-0.1-0.1-0.2-0.3 0-0.1 0-0.3 0-0.1 0-0.3 0.1-0.1 0.2-0.3l3-5.2 11.7-20.6q0.4-0.7-0.4-0.7h-120.8q-0.9 0-0.4-0.8l14.9-26.1q0.1-0.1 0.2-0.3 0-0.1 0-0.3 0-0.1 0-0.3-0.1-0.1-0.2-0.3l-14.2-24.9q0-0.1-0.1-0.2-0.1 0-0.1-0.1-0.1 0-0.2 0-0.1 0-0.2 0zm65.6 83.5q0.7 0 0.3 0.6l-8.7 15.3-27.2 47.7q0 0.1-0.1 0.2 0 0-0.1 0.1-0.1 0-0.1 0-0.1 0-0.2 0-0.1 0-0.1 0-0.1 0-0.2 0-0.1-0.1-0.1-0.1-0.1-0.1-0.1-0.2l-36-62.8q-0.3-0.5 0.3-0.6l2.3-0.1c0 0 70-0.1 70-0.1z"/></svg>